<svg width="132" height="42" viewBox="0 0 132 42" fill="none" xmlns="http://www.w3.org/2000/svg">
<path d="M13.9095 29.8021C10.3262 29.8021 7.56576 29.0677 5.63867 27.5938C3.72201 26.125 2.76367 24.0313 2.76367 21.323C2.76367 19.5469 2.81055 17.8334 2.90951 16.1771C3.01888 14.5105 3.13867 13.0677 3.26367 11.8438C3.31576 11.4011 3.58138 11.1355 4.05534 11.0521C4.23242 11.0261 4.46159 11.0052 4.74284 10.9896C5.01888 10.9636 5.29492 10.948 5.57617 10.948C5.85221 10.9375 6.04492 10.9271 6.15951 10.9271C6.28451 10.9271 6.48242 10.9375 6.76367 10.948C7.05534 10.948 7.34701 10.9636 7.63867 10.9896C7.94076 11.0052 8.16992 11.0261 8.32617 11.0521C8.53451 11.0938 8.72721 11.198 8.90951 11.3646C9.10221 11.5313 9.16471 11.7761 9.09701 12.0938C8.83138 13.375 8.60742 14.8021 8.43034 16.3855C8.26367 17.9688 8.21159 19.5521 8.28451 21.1355C8.31055 22.0521 8.54492 22.8959 8.99284 23.6563C9.43555 24.4063 10.0658 25.0105 10.8887 25.4688C11.722 25.9167 12.7272 26.1355 13.9095 26.1355C15.1022 26.1355 16.1074 25.9011 16.9303 25.4271C17.7637 24.9584 18.3939 24.3386 18.8262 23.573C19.2689 22.8125 19.5137 22 19.5553 21.1355C19.623 19.5521 19.5605 17.9844 19.3678 16.4271C19.1855 14.875 18.9616 13.4271 18.7012 12.0938C18.6283 11.7761 18.6855 11.5313 18.8678 11.3646C19.0605 11.198 19.2533 11.0938 19.4512 11.0521C19.6178 11.0261 19.847 11.0052 20.1387 10.9896C20.4408 10.9636 20.7324 10.948 21.0137 10.948C21.3053 10.9375 21.5137 10.9271 21.6387 10.9271C21.7741 10.9271 21.9772 10.9375 22.2428 10.948C22.5033 10.948 22.7845 10.9636 23.0762 10.9896C23.3678 11.0052 23.597 11.0261 23.7637 11.0521C24.222 11.1355 24.4772 11.4011 24.5345 11.8438C24.7116 13.0677 24.8366 14.5105 24.9095 16.1771C24.9928 17.8334 25.0345 19.5469 25.0345 21.323C25.0345 24.0313 24.0658 26.125 22.1387 27.5938C20.222 29.0677 17.4772 29.8021 13.9095 29.8021Z" fill="black"/>
<path d="M30.3509 29.6563C30.0853 29.6563 29.7884 29.6459 29.4551 29.6355C29.1217 29.6198 28.752 29.5834 28.3509 29.5313C28.1009 29.4896 27.8978 29.4011 27.7467 29.2605C27.5905 29.1094 27.5176 28.9167 27.5176 28.6771C27.5176 27.8438 27.7155 26.9792 28.1217 26.073C28.5384 25.1563 29.0905 24.2917 29.7884 23.4688C30.4811 22.6355 31.2728 21.9063 32.1634 21.2813C33.0488 20.6563 33.9655 20.2136 34.9134 19.948C35.1478 19.8802 35.2676 19.7552 35.2676 19.573C35.278 19.3802 35.1686 19.25 34.9342 19.1771C34.0436 18.9011 33.2051 18.5 32.4134 17.9688C31.6322 17.4271 30.9447 16.8177 30.3509 16.1355C29.7676 15.4427 29.2988 14.7292 28.9551 13.9896C28.6217 13.2552 28.4551 12.5625 28.4551 11.9063C28.4551 11.4219 28.7155 11.1355 29.2467 11.0521C29.6478 10.9844 30.0176 10.948 30.3509 10.948C30.6947 10.9375 31.002 10.9271 31.2676 10.9271C31.528 10.9271 31.8561 10.9375 32.2467 10.948C32.6478 10.9636 33.0384 11 33.4134 11.0521C33.7988 11.1094 34.0384 11.3125 34.1217 11.6563C34.4238 12.7709 34.8301 13.7917 35.3301 14.7188C35.8405 15.6355 36.4186 16.375 37.0592 16.9271C37.7103 17.4844 38.3509 17.7605 38.9759 17.7605C39.627 17.7605 40.278 17.4688 40.9342 16.8855C41.6009 16.3021 42.1895 15.5521 42.7051 14.6355C43.2311 13.7084 43.6061 12.7136 43.8301 11.6563C43.8822 11.3125 44.1113 11.1094 44.5176 11.0521C44.903 10.9844 45.2988 10.948 45.7051 10.948C46.1061 10.9375 46.4342 10.9271 46.6842 10.9271C46.9447 10.9271 47.2572 10.9375 47.6217 10.948C47.9811 10.9636 48.3561 11 48.7467 11.0521C48.9655 11.0677 49.153 11.1563 49.3092 11.323C49.4603 11.4792 49.5384 11.6719 49.5384 11.9063C49.5228 12.573 49.3353 13.2761 48.9759 14.0105C48.627 14.75 48.1478 15.4636 47.5384 16.1563C46.9395 16.8386 46.252 17.4584 45.4759 18.0105C44.6947 18.5677 43.8822 18.9896 43.0384 19.2813C42.8301 19.3542 42.7259 19.4792 42.7259 19.6563C42.7259 19.823 42.8301 19.948 43.0384 20.0313C44.0072 20.3959 44.9342 20.8959 45.8092 21.5313C46.6947 22.1719 47.4863 22.8855 48.1842 23.6771C48.877 24.4688 49.4238 25.2969 49.8301 26.1563C50.2467 27.0209 50.4551 27.8594 50.4551 28.6771C50.4551 28.9167 50.3717 29.1094 50.2051 29.2605C50.0488 29.4011 49.8613 29.4896 49.6426 29.5313C49.252 29.5834 48.877 29.6198 48.5176 29.6355C48.1686 29.6459 47.877 29.6563 47.6426 29.6563C47.2676 29.6563 46.8926 29.6459 46.5176 29.6355C46.1426 29.6355 45.7572 29.599 45.3717 29.5313C44.9655 29.4792 44.7103 29.2761 44.6009 28.9271C44.3197 28.0261 43.9603 27.1459 43.5176 26.2813C43.0697 25.4063 42.5905 24.6146 42.0801 23.9063C41.5645 23.1875 41.0384 22.6094 40.4967 22.1771C39.9551 21.75 39.4447 21.5313 38.9759 21.5313C38.4863 21.5313 37.9603 21.7552 37.3926 22.198C36.8353 22.6302 36.2884 23.2084 35.7467 23.9271C35.2051 24.6511 34.7155 25.448 34.2884 26.323C33.8717 27.1875 33.5592 28.0469 33.3509 28.9063C33.278 29.2709 33.0384 29.4792 32.6217 29.5313C32.2311 29.599 31.8405 29.6355 31.4551 29.6355C31.0801 29.6459 30.7103 29.6563 30.3509 29.6563Z" fill="#C49CFF"/>
<path d="M64.5186 29.6562C64.0029 29.6562 63.3779 29.6458 62.6436 29.6354C61.904 29.6354 61.1279 29.625 60.3102 29.6145C59.5029 29.6145 58.7165 29.6041 57.9561 29.5937C57.2061 29.5937 56.5446 29.5833 55.9769 29.5729C55.404 29.5573 54.9977 29.5416 54.7477 29.5312C54.4821 29.5208 54.2581 29.4479 54.0811 29.3229C53.9144 29.1875 53.8311 28.9843 53.8311 28.7187C53.8415 27.5677 53.8623 26.2812 53.8936 24.8645C53.9352 23.4479 53.9821 21.9791 54.0394 20.4479C54.0915 18.9218 54.1644 17.4166 54.2477 15.927C54.3311 14.4427 54.4248 13.0677 54.5394 11.802C54.5811 11.552 54.6852 11.375 54.8519 11.2604C55.0186 11.1354 55.2165 11.0677 55.4561 11.052C55.6748 11.0416 56.0446 11.0312 56.5602 11.0312C57.0706 11.0208 57.6852 11.0052 58.3936 10.9895C59.1019 10.9791 59.8311 10.9687 60.5811 10.9687C61.3415 10.9583 62.0706 10.9479 62.7686 10.9479C63.4613 10.9479 64.0602 10.9479 64.5602 10.9479C65.5186 10.9479 66.5498 10.9479 67.6644 10.9479C68.7738 10.9479 69.8519 10.9635 70.8936 10.9895C71.9352 11.0052 72.8311 11.026 73.5811 11.052C74.0811 11.0677 74.3571 11.3333 74.4144 11.8437C74.4665 12.25 74.5081 12.7708 74.5394 13.4062C74.5811 14.0312 74.6123 14.6562 74.6436 15.2812C74.6852 15.9062 74.7061 16.4166 74.7061 16.802C74.7165 17.2083 74.5654 17.4479 74.2477 17.5312C73.9404 17.6041 73.654 17.4583 73.3936 17.0937C72.7269 16.1666 71.6904 15.5 70.2894 15.0937C68.8988 14.677 67.0446 14.4687 64.7269 14.4687C63.654 14.4687 62.6748 14.5416 61.7894 14.677C60.8988 14.802 60.1904 15.026 59.6644 15.3437C59.1488 15.651 58.8936 16.0885 58.8936 16.6562V16.802C58.8936 17.9166 60.3311 18.4687 63.2061 18.4687C63.8727 18.4687 64.6123 18.4583 65.4352 18.427C66.2686 18.401 67.0863 18.3645 67.8936 18.3229C68.6956 18.2812 69.3988 18.2343 69.9977 18.177C70.2477 18.151 70.4613 18.2187 70.6436 18.3854C70.8363 18.552 70.9352 18.7552 70.9352 18.9895V21.5104C70.9352 21.7916 70.8206 21.9791 70.6019 22.0729C70.3779 22.1562 70.1227 22.1093 69.8311 21.927C69.3415 21.7083 68.7529 21.5312 68.0602 21.4062C67.3623 21.2812 66.6331 21.1927 65.8727 21.1354C65.1071 21.0833 64.3831 21.052 63.7061 21.052C62.8727 21.052 62.0811 21.1093 61.3311 21.2187C60.5811 21.3177 59.9769 21.5104 59.5186 21.802C59.0706 22.0937 58.8519 22.5208 58.8519 23.0729V23.4062C58.8519 24.0625 59.1748 24.5833 59.8311 24.9687C60.4977 25.3593 61.3623 25.6302 62.4352 25.7812C63.5029 25.9375 64.6331 26.0104 65.8311 26.0104C67.1904 26.0104 68.3363 25.9427 69.2686 25.802C70.2113 25.651 71.0081 25.4218 71.6644 25.1145C72.3154 24.8125 72.8779 24.4166 73.3519 23.927C73.8363 23.4427 74.2894 22.8645 74.7061 22.1979C74.8988 21.8645 75.1644 21.7187 75.4977 21.7604C75.8415 21.7916 76.0446 22.0052 76.1019 22.4062C76.154 22.7552 76.2061 23.2187 76.2477 23.802C76.2894 24.3854 76.3363 25.0052 76.3936 25.6562C76.4456 26.3125 76.4873 26.927 76.5186 27.5104C76.5602 28.0833 76.5863 28.5468 76.6019 28.9062C76.6436 29.3125 76.4248 29.5208 75.9561 29.5312C75.3311 29.5729 74.5238 29.5989 73.5394 29.6145C72.5498 29.625 71.4977 29.6354 70.3727 29.6354C69.2581 29.6458 68.1852 29.6562 67.1436 29.6562C66.1123 29.6562 65.2373 29.6562 64.5186 29.6562Z" fill="black"/>
<path d="M92.0645 29.7604C91.2572 29.7604 90.3561 29.7187 89.3561 29.6354C88.3561 29.552 87.3249 29.4375 86.2728 29.2812C85.2311 29.1145 84.2207 28.9427 83.252 28.7604C82.2936 28.5677 81.4238 28.3645 80.6478 28.1562C80.4655 28.1041 80.3197 27.9895 80.2103 27.8229C80.1113 27.6562 80.0645 27.4687 80.0645 27.2604C80.0645 26.552 80.0645 25.8541 80.0645 25.1562C80.0749 24.4635 80.0905 23.7708 80.1061 23.0729C80.1322 22.6979 80.2936 22.4427 80.5853 22.302C80.8874 22.1666 81.153 22.2135 81.377 22.4479C82.679 23.6718 84.252 24.5625 86.0853 25.1145C87.929 25.6718 89.8874 25.9479 91.9603 25.9479C93.5957 25.9479 94.903 25.7916 95.877 25.4687C96.8457 25.1354 97.3353 24.6354 97.3353 23.9687C97.3353 23.526 97.0957 23.1718 96.627 22.9062C96.153 22.6302 95.5228 22.4062 94.7311 22.2395C93.9395 22.0729 93.054 21.927 92.0853 21.802C91.1113 21.6666 90.0957 21.5208 89.0436 21.3645C87.9863 21.1979 86.9655 20.9895 85.9811 20.7395C85.0072 20.4895 84.127 20.1718 83.3353 19.7812C82.5436 19.3802 81.9082 18.875 81.4395 18.2604C80.9811 17.651 80.752 16.8854 80.752 15.9687C80.752 15.0416 81.0228 14.25 81.5645 13.5937C82.1061 12.9427 82.8613 12.4062 83.8353 11.9895C84.8197 11.5729 85.9655 11.276 87.2728 11.0937C88.5749 10.9166 89.9707 10.8229 91.4603 10.8229C92.4186 10.8229 93.4186 10.8802 94.4603 10.9895C95.502 11.0885 96.528 11.2395 97.5436 11.4479C98.554 11.6562 99.4811 11.9166 100.314 12.2187C100.7 12.3593 100.898 12.6302 100.898 13.0312V16.4895C100.898 16.8385 100.752 17.1041 100.46 17.2812C100.179 17.4635 99.9186 17.4479 99.6686 17.2395C98.5957 16.4062 97.3561 15.7604 95.9395 15.302C94.5332 14.8437 93.127 14.6145 91.7103 14.6145C90.7936 14.6145 89.9082 14.677 89.0645 14.802C88.2311 14.927 87.5488 15.125 87.0228 15.3854C86.4915 15.651 86.2311 16.0052 86.2311 16.4479C86.2311 16.8802 86.4655 17.2291 86.9395 17.4895C87.4238 17.7552 88.0645 17.9687 88.8561 18.1354C89.6478 18.2916 90.5332 18.427 91.5228 18.552C92.5228 18.677 93.5488 18.8177 94.6061 18.9687C95.6738 19.1093 96.7103 19.302 97.7103 19.552C98.7103 19.7916 99.6061 20.1041 100.398 20.4895C101.189 20.8645 101.82 21.3593 102.294 21.9687C102.762 22.5833 103.002 23.3333 103.002 24.2187C103.002 25.9843 102.044 27.3541 100.127 28.3229C98.2103 29.2812 95.5228 29.7604 92.0645 29.7604Z" fill="black"/>
<path d="M118.354 29.7604C117.546 29.7604 116.645 29.7187 115.645 29.6354C114.645 29.552 113.614 29.4375 112.562 29.2812C111.52 29.1145 110.51 28.9427 109.541 28.7604C108.583 28.5677 107.713 28.3645 106.937 28.1562C106.755 28.1041 106.609 27.9895 106.499 27.8229C106.4 27.6562 106.354 27.4687 106.354 27.2604C106.354 26.552 106.354 25.8541 106.354 25.1562C106.364 24.4635 106.38 23.7708 106.395 23.0729C106.421 22.6979 106.583 22.4427 106.874 22.302C107.176 22.1666 107.442 22.2135 107.666 22.4479C108.968 23.6718 110.541 24.5625 112.374 25.1145C114.218 25.6718 116.176 25.9479 118.249 25.9479C119.885 25.9479 121.192 25.7916 122.166 25.4687C123.135 25.1354 123.624 24.6354 123.624 23.9687C123.624 23.526 123.385 23.1718 122.916 22.9062C122.442 22.6302 121.812 22.4062 121.02 22.2395C120.229 22.0729 119.343 21.927 118.374 21.802C117.4 21.6666 116.385 21.5208 115.333 21.3645C114.275 21.1979 113.255 20.9895 112.27 20.7395C111.296 20.4895 110.416 20.1718 109.624 19.7812C108.833 19.3802 108.197 18.875 107.729 18.2604C107.27 17.651 107.041 16.8854 107.041 15.9687C107.041 15.0416 107.312 14.25 107.854 13.5937C108.395 12.9427 109.15 12.4062 110.124 11.9895C111.109 11.5729 112.255 11.276 113.562 11.0937C114.864 10.9166 116.26 10.8229 117.749 10.8229C118.708 10.8229 119.708 10.8802 120.749 10.9895C121.791 11.0885 122.817 11.2395 123.833 11.4479C124.843 11.6562 125.77 11.9166 126.604 12.2187C126.989 12.3593 127.187 12.6302 127.187 13.0312V16.4895C127.187 16.8385 127.041 17.1041 126.749 17.2812C126.468 17.4635 126.208 17.4479 125.958 17.2395C124.885 16.4062 123.645 15.7604 122.229 15.302C120.822 14.8437 119.416 14.6145 117.999 14.6145C117.083 14.6145 116.197 14.677 115.354 14.802C114.52 14.927 113.838 15.125 113.312 15.3854C112.781 15.651 112.52 16.0052 112.52 16.4479C112.52 16.8802 112.755 17.2291 113.229 17.4895C113.713 17.7552 114.354 17.9687 115.145 18.1354C115.937 18.2916 116.822 18.427 117.812 18.552C118.812 18.677 119.838 18.8177 120.895 18.9687C121.963 19.1093 122.999 19.302 123.999 19.552C124.999 19.7916 125.895 20.1041 126.687 20.4895C127.479 20.8645 128.109 21.3593 128.583 21.9687C129.051 22.5833 129.291 23.3333 129.291 24.2187C129.291 25.9843 128.333 27.3541 126.416 28.3229C124.499 29.2812 121.812 29.7604 118.354 29.7604Z" fill="black"/>
<path d="M31.4375 28.125C31.2135 28.125 30.9583 28.1146 30.6667 28.1042C30.375 28.0885 30.0521 28.0625 29.7083 28.0208C29.5 27.9948 29.3229 27.9167 29.1875 27.7917C29.0625 27.6562 29 27.4896 29 27.2917C29 26.5729 29.1719 25.8229 29.5208 25.0417C29.8802 24.25 30.3594 23.5 30.9583 22.7917C31.5521 22.0833 32.2344 21.4583 33 20.9167C33.7604 20.375 34.5521 19.9948 35.375 19.7708C35.5677 19.7188 35.6667 19.6146 35.6667 19.4583C35.6771 19.2917 35.5885 19.1771 35.3958 19.1042C34.6146 18.8698 33.8854 18.5208 33.2083 18.0625C32.5417 17.5938 31.9479 17.0625 31.4375 16.4792C30.9375 15.8854 30.5417 15.2708 30.25 14.6458C29.9583 14.0104 29.8125 13.4062 29.8125 12.8333C29.8125 12.4323 30.0312 12.1875 30.4792 12.1042C30.8229 12.0521 31.1458 12.0208 31.4375 12.0208C31.7396 12.0104 32.0052 12 32.2292 12C32.4635 12 32.75 12.0104 33.0833 12.0208C33.4271 12.0365 33.7604 12.0625 34.0833 12.1042C34.4167 12.1615 34.6146 12.3333 34.6875 12.625C34.9479 13.5833 35.2969 14.4688 35.7292 15.2708C36.1719 16.0625 36.6719 16.6979 37.2292 17.1667C37.7812 17.6406 38.3333 17.875 38.875 17.875C39.4271 17.875 39.9896 17.625 40.5625 17.125C41.1302 16.625 41.6354 15.9792 42.0833 15.1875C42.5417 14.3958 42.8646 13.5417 43.0625 12.625C43.1042 12.3333 43.2969 12.1615 43.6458 12.1042C43.9792 12.0521 44.3177 12.0208 44.6667 12.0208C45.0104 12.0104 45.2969 12 45.5208 12C45.7396 12 46.0052 12.0104 46.3125 12.0208C46.6302 12.0365 46.9583 12.0625 47.2917 12.1042C47.4844 12.1198 47.6458 12.1979 47.7708 12.3333C47.8958 12.474 47.9583 12.6406 47.9583 12.8333C47.9427 13.4167 47.7812 14.0312 47.4792 14.6667C47.1875 15.2917 46.776 15.9062 46.25 16.5C45.7188 17.0833 45.125 17.6198 44.4583 18.1042C43.7917 18.5781 43.0938 18.9479 42.375 19.2083C42.1927 19.2656 42.1042 19.3698 42.1042 19.5208C42.1042 19.6615 42.1927 19.7656 42.375 19.8333C43.2083 20.1562 44 20.5938 44.75 21.1458C45.5104 21.6875 46.1927 22.3021 46.7917 22.9792C47.3854 23.6615 47.8646 24.375 48.2292 25.125C48.5885 25.8646 48.7708 26.5833 48.7708 27.2917C48.7708 27.4896 48.6979 27.6562 48.5625 27.7917C48.4219 27.9167 48.2552 27.9948 48.0625 28.0208C47.7292 28.0625 47.4062 28.0885 47.1042 28.1042C46.7969 28.1146 46.5417 28.125 46.3333 28.125C46.0104 28.125 45.6875 28.1146 45.3542 28.1042C45.0312 28.1042 44.7083 28.0729 44.375 28.0208C44.026 27.9792 43.8021 27.8073 43.7083 27.5C43.4688 26.724 43.1562 25.9583 42.7708 25.2083C42.3958 24.4583 41.9844 23.7812 41.5417 23.1667C41.0938 22.5573 40.6354 22.0625 40.1667 21.6875C39.7083 21.3125 39.276 21.125 38.875 21.125C38.4427 21.125 37.9844 21.3229 37.5 21.7083C37.026 22.0833 36.5521 22.5833 36.0833 23.2083C35.625 23.8229 35.2135 24.5 34.8542 25.25C34.4896 25.9896 34.2188 26.7292 34.0417 27.4792C33.9688 27.8021 33.7552 27.9792 33.3958 28.0208C33.0625 28.0729 32.7292 28.1042 32.3958 28.1042C32.0729 28.1146 31.7552 28.125 31.4375 28.125Z" fill="#6600FF"/>
<mask id="mask0_15313_86174" style="mask-type:luminance" maskUnits="userSpaceOnUse" x="35" y="5" width="8" height="8">
<path d="M35.7832 5.99475H42.4759V12.6354H35.7832V5.99475Z" fill="white"/>
</mask>
<g mask="url(#mask0_15313_86174)">
<mask id="mask1_15313_86174" style="mask-type:luminance" maskUnits="userSpaceOnUse" x="35" y="5" width="8" height="8">
<path d="M39.1165 5.99475C37.2728 5.99475 35.7832 7.47913 35.7832 9.31246C35.7832 11.1458 37.2728 12.6354 39.1165 12.6354C40.9551 12.6354 42.4499 11.1458 42.4499 9.31246C42.4499 7.47913 40.9551 5.99475 39.1165 5.99475Z" fill="white"/>
</mask>
<g mask="url(#mask1_15313_86174)">
<path d="M35.7832 5.99475H42.4499V12.6354H35.7832V5.99475Z" fill="#6600FF"/>
</g>
</g>
</svg>
